<?xml version="1.0" encoding="UTF-8"?>
<svg width="30px" height="30px" viewBox="0 0 30 30" version="1.1" xmlns="http://www.w3.org/2000/svg" xmlns:xlink="http://www.w3.org/1999/xlink">
    <!-- Generator: Sketch 52.5 (67469) - http://www.bohemiancoding.com/sketch -->
    <title>cancel-music</title>
    <desc>Created with Sketch.</desc>
    <g id="Web-Skillterr" stroke="none" stroke-width="1" fill="none" fill-rule="evenodd">
        <g id="Skillterr-LP-Dark" transform="translate(-190.000000, -2357.000000)" fill="#383876">
            <g id="Blog-Post-2" transform="translate(190.000000, 2218.000000)">
                <g id="cancel-music" transform="translate(0.000000, 139.000000)">
                    <path d="M18.5654556,15.0000704 L29.2615582,4.30395526 C30.2461473,3.31936502 30.2461473,1.72303293 29.2615582,0.738583542 C28.2769691,-0.246006705 26.6807797,-0.246006705 25.6961906,0.738583542 L14.9999472,11.4348396 L4.30370371,0.738442685 C3.31911462,-0.246147562 1.72292527,-0.246147562 0.738336176,0.738442685 C-0.246112059,1.72303293 -0.246112059,3.31936502 0.738336176,4.30381441 L11.4345796,14.9999296 L0.738336176,25.6961856 C-0.246112059,26.6807758 -0.246112059,28.2771079 0.738336176,29.2615573 C1.72292527,30.2461476 3.31911462,30.2461476 4.30370371,29.2615573 L14.9999472,18.5653013 L25.6961906,29.2615573 C26.6806389,30.2461476 28.2769691,30.2461476 29.2615582,29.2615573 C30.2461473,28.2769671 30.2461473,26.6807758 29.2615582,25.6961856 L18.5654556,15.0000704 Z" id="Path"></path>
                </g>
            </g>
        </g>
    </g>
</svg>
