<?xml version="1.0" encoding="UTF-8"?>
<svg width="108px" height="108px" viewBox="0 0 108 108" version="1.1" xmlns="http://www.w3.org/2000/svg" xmlns:xlink="http://www.w3.org/1999/xlink">
    <!-- Generator: Sketch 52.5 (67469) - http://www.bohemiancoding.com/sketch -->
    <title>Grow@2x</title>
    <desc>Created with Sketch.</desc>
    <g id="Web-Skillterr" stroke="none" stroke-width="1" fill="none" fill-rule="evenodd">
        <g id="Skillterr-LP-Dark" transform="translate(-1102.000000, -1291.000000)">
            <g id="Benefit" transform="translate(120.000000, 1283.000000)">
                <g id="Barter-icon" transform="translate(94.000000, 0.000000)">
                    <g id="Grow" transform="translate(888.000000, 8.000000)">
                        <circle id="Oval-Copy-6" fill="#F9775A" cx="54" cy="54" r="54"></circle>
                        <g id="002-sprout" transform="translate(34.000000, 34.000000)" fill="#FFFFFF">
                            <ellipse id="Oval" cx="6.34070312" cy="30.8331106" rx="1" ry="1"></ellipse>
                            <path d="M36.03125,6.94566052 L31.4345312,6.94566052 C30.396875,6.94566052 29.4439844,7.3153149 28.700625,7.92968766 L28.700625,7.7265105 L28.700625,5.5821403 C28.700625,2.51566436 26.2047656,0.0210829493 23.1367969,0.0210829493 L17.9246875,0.0210829493 C17.4932031,0.0210829493 17.1434375,0.370747568 17.1434375,0.801932924 L17.1434375,2.94638121 C17.1434375,6.01277906 19.6392969,8.50736047 22.7072656,8.50736047 L27.138125,8.50736047 L27.138125,11.2398669 L27.138125,13.3466001 L27.138125,16.4229147 C26.9320312,16.4097184 26.7247656,16.4024565 26.5164844,16.4024565 C24.4632812,16.4024565 22.5003125,17.0351011 20.8401562,18.2319099 C20.4902344,18.4841244 20.4110937,18.9721557 20.6635156,19.3219764 C20.9159375,19.6717192 21.4042187,19.7509754 21.7541406,19.4985266 C23.1465625,18.4948221 24.7934375,17.9642345 26.5164844,17.9642345 C26.9329687,17.9642345 27.3446875,17.9971864 27.7491406,18.0591078 C27.7826562,18.0665259 27.8169531,18.0718356 27.8519531,18.074881 C30.283125,18.4788927 32.4329687,19.9707847 33.6514844,22.1689555 C33.7941406,22.4262455 34.0607031,22.5714836 34.3355469,22.5714836 C34.4635937,22.5714836 34.5935156,22.5399373 34.7134375,22.4734869 C35.0908594,22.2644534 35.2272656,21.7892281 35.018125,21.4119995 C33.66625,18.9732488 31.3517969,17.264671 28.7005469,16.6523285 L28.7005469,14.1274501 L32.5160937,14.1274501 C34.8850781,14.1274501 36.8125,12.2010932 36.8125,9.83324373 L36.8125,7.7265105 C36.8125,7.29532514 36.4627344,6.94566052 36.03125,6.94566052 Z M27.138125,6.94566052 L22.7072656,6.94566052 C20.5009375,6.94566052 18.7059375,5.15157962 18.7059375,2.94638121 L18.7059375,1.5827829 L23.1367969,1.5827829 C25.343125,1.5827829 27.138125,3.3768638 27.138125,5.5821403 L27.138125,6.94566052 Z M35.25,9.83332181 C35.25,11.3399718 34.0235937,12.5658282 32.5160937,12.5658282 L28.700625,12.5658282 L28.700625,11.239945 C28.700625,9.73329493 29.9270312,8.50743856 31.4345312,8.50743856 L35.25,8.50743856 L35.25,9.83332181 Z" id="Shape" fill-rule="nonzero"></path>
                            <path d="M39.7392187,25.3628661 C39.0573437,23.81936 37.2461719,23.1183909 35.701875,23.7995264 C35.6979687,23.8012442 35.6941406,23.8030402 35.6902344,23.8047581 L30.5857812,26.1575371 C30.1939062,26.3381477 30.0228125,26.8020507 30.2034375,27.193647 C30.3841406,27.5853213 30.8482812,27.7562494 31.2400781,27.5757949 L36.3382812,25.225905 C37.0932031,24.8962302 37.9766406,25.239648 38.3097656,25.9937148 C38.6435937,26.7494995 38.3,27.6357642 37.5439062,27.9694995 L27.098125,32.5792473 C25.4429687,33.3097325 23.5642187,33.2673323 21.9436719,32.4625102 L18.1199219,30.5638735 C16.0824219,29.5521262 13.7201562,29.4987161 11.6391406,30.4170737 L11.5639844,30.4503379 L8.70625,23.9813082 L12.67375,22.2304864 C14.56375,21.3963825 16.6728125,21.3291513 18.6121875,22.0408961 L26.3014844,24.8632783 C27.0029687,25.1208026 27.376875,25.9051664 27.135,26.6118356 C26.8885156,27.3320917 26.1010937,27.7193932 25.3797656,27.47569 L19.4336719,25.4655479 C19.0249219,25.3273374 18.5815625,25.546522 18.4432812,25.9550627 C18.305,26.3636034 18.5242969,26.8067358 18.9330469,26.9449462 L24.8791406,28.9550883 C25.1904687,29.0603469 25.5075781,29.1103213 25.8196875,29.1103213 C27.0460937,29.1103213 28.1953906,28.3386854 28.6134375,27.1175141 C29.1280469,25.6140655 28.3325781,23.9451549 26.8402344,23.3973886 L19.1510156,20.5750064 C16.8296094,19.723021 14.3052344,19.8035266 12.0428906,20.8017652 L8.04984375,22.5639094 C7.82523437,22.2189299 7.5009375,21.9521134 7.10945312,21.8003943 C6.61648437,21.6095545 6.07859375,21.62197 5.59695312,21.8345174 L0.46765625,24.0807885 C0.18359375,24.205256 0,24.4859716 0,24.7960471 L0,38.5529058 C0,38.824095 0.14078125,39.075841 0.371875,39.2180338 C0.49703125,39.2949475 0.63890625,39.3337558 0.78125,39.3337558 C0.90171875,39.3337558 1.02242187,39.3059575 1.1334375,39.2498925 L11.09125,34.2220776 C11.5647656,34.0067972 11.9284375,33.6219163 12.1166406,33.1363057 C12.2734375,32.7318254 12.293125,32.2971262 12.1770312,31.8869457 L12.2701562,31.845873 C13.9254687,31.1153879 15.8041406,31.1580223 17.4246875,31.9626882 L21.2484375,33.8613249 C23.2858594,34.8730722 25.6480469,34.9265604 27.7292187,34.0080466 L38.1750781,29.3982988 C39.719375,28.7166948 40.4210156,26.9063722 39.7392187,25.3628661 Z M10.6596875,32.5720635 C10.6194531,32.6758385 10.54125,32.7577496 10.439375,32.8026485 C10.4269531,32.8081144 10.4147656,32.8139708 10.4026562,32.8200614 L1.5625,37.2835561 L1.5625,33.8654634 L3.87328125,32.7312788 C4.260625,32.5411418 4.42039062,32.0732565 4.23015625,31.6861111 C4.03992187,31.2989657 3.57164062,31.1392819 3.18453125,31.3294188 L1.5625,32.1254954 L1.5625,25.3063326 L6.225625,23.2640195 C6.3275,23.2191206 6.44078125,23.2164657 6.54453125,23.2566014 C6.64835937,23.2968152 6.7303125,23.3750563 6.7753125,23.4768011 L10.4501562,31.795352 C10.4504687,31.7961329 10.4507812,31.7968356 10.4510937,31.7975384 L10.6524219,32.2532424 C10.6973437,32.3550653 10.6999219,32.4682885 10.6596875,32.5720635 Z" id="Shape" fill-rule="nonzero"></path>
                        </g>
                    </g>
                </g>
            </g>
        </g>
    </g>
</svg>
