<?xml version="1.0" encoding="UTF-8"?>
<svg width="188px" height="180px" viewBox="0 0 188 180" version="1.1" xmlns="http://www.w3.org/2000/svg" xmlns:xlink="http://www.w3.org/1999/xlink">
    <!-- Generator: Sketch 52.5 (67469) - http://www.bohemiancoding.com/sketch -->
    <title>Network@2x</title>
    <desc>Created with Sketch.</desc>
    <defs>
        <filter x="-116.0%" y="-116.0%" width="332.0%" height="332.0%" filterUnits="objectBoundingBox" id="filter-1">
            <feOffset dx="0" dy="0" in="SourceAlpha" result="shadowOffsetOuter1"></feOffset>
            <feGaussianBlur stdDeviation="15" in="shadowOffsetOuter1" result="shadowBlurOuter1"></feGaussianBlur>
            <feColorMatrix values="0 0 0 0 0   0 0 0 0 0   0 0 0 0 0  0 0 0 0.5 0" type="matrix" in="shadowBlurOuter1" result="shadowMatrixOuter1"></feColorMatrix>
            <feMerge>
                <feMergeNode in="shadowMatrixOuter1"></feMergeNode>
                <feMergeNode in="SourceGraphic"></feMergeNode>
            </feMerge>
        </filter>
        <filter x="-156.8%" y="-156.8%" width="413.5%" height="413.5%" filterUnits="objectBoundingBox" id="filter-2">
            <feOffset dx="0" dy="0" in="SourceAlpha" result="shadowOffsetOuter1"></feOffset>
            <feGaussianBlur stdDeviation="15" in="shadowOffsetOuter1" result="shadowBlurOuter1"></feGaussianBlur>
            <feColorMatrix values="0 0 0 0 0   0 0 0 0 0   0 0 0 0 0  0 0 0 0.5 0" type="matrix" in="shadowBlurOuter1" result="shadowMatrixOuter1"></feColorMatrix>
            <feMerge>
                <feMergeNode in="shadowMatrixOuter1"></feMergeNode>
                <feMergeNode in="SourceGraphic"></feMergeNode>
            </feMerge>
        </filter>
        <filter x="-187.1%" y="-187.1%" width="474.2%" height="474.2%" filterUnits="objectBoundingBox" id="filter-3">
            <feOffset dx="0" dy="0" in="SourceAlpha" result="shadowOffsetOuter1"></feOffset>
            <feGaussianBlur stdDeviation="15" in="shadowOffsetOuter1" result="shadowBlurOuter1"></feGaussianBlur>
            <feColorMatrix values="0 0 0 0 0   0 0 0 0 0   0 0 0 0 0  0 0 0 0.5 0" type="matrix" in="shadowBlurOuter1" result="shadowMatrixOuter1"></feColorMatrix>
            <feMerge>
                <feMergeNode in="shadowMatrixOuter1"></feMergeNode>
                <feMergeNode in="SourceGraphic"></feMergeNode>
            </feMerge>
        </filter>
        <filter x="-187.1%" y="-187.1%" width="474.2%" height="474.2%" filterUnits="objectBoundingBox" id="filter-4">
            <feOffset dx="0" dy="0" in="SourceAlpha" result="shadowOffsetOuter1"></feOffset>
            <feGaussianBlur stdDeviation="15" in="shadowOffsetOuter1" result="shadowBlurOuter1"></feGaussianBlur>
            <feColorMatrix values="0 0 0 0 0   0 0 0 0 0   0 0 0 0 0  0 0 0 0.5 0" type="matrix" in="shadowBlurOuter1" result="shadowMatrixOuter1"></feColorMatrix>
            <feMerge>
                <feMergeNode in="shadowMatrixOuter1"></feMergeNode>
                <feMergeNode in="SourceGraphic"></feMergeNode>
            </feMerge>
        </filter>
    </defs>
    <g id="Web-Skillterr" stroke="none" stroke-width="1" fill="none" fill-rule="evenodd">
        <g id="Skillterr-LP-Dark" transform="translate(-626.000000, -1254.000000)">
            <g id="Benefit" transform="translate(120.000000, 1283.000000)">
                <g id="Barter-icon" transform="translate(94.000000, 0.000000)">
                    <g id="Network" transform="translate(441.000000, 0.000000)">
                        <circle id="Oval-Copy" fill="#F9775A" cx="73" cy="62" r="54"></circle>
                        <g id="003-handshake" transform="translate(53.000000, 52.000000)" fill="#FFFFFF">
                            <path d="M39.21875,6.71185387 C39.6502344,6.71185387 40,6.36377769 40,5.93455111 L40,0.818188885 C40,0.388962301 39.6502344,0.0408861251 39.21875,0.0408861251 L35,0.0408861251 C34.305,0.0408861251 33.7150781,0.494986397 33.5127344,1.12048193 L22.5194531,1.12048193 C22.5111719,1.11636222 22.5034375,1.11169841 22.4949219,1.10788962 C20.3735938,0.148931209 18.0435938,-0.123357948 15.7570313,0.320792849 L9.44625,1.54605519 L6.56,1.54605519 C6.53335938,0.711853867 5.84476563,0.0408861251 5,0.0408861251 L0.78125,0.0408861251 C0.349765625,0.0408861251 0,0.388962301 0,0.818188885 L0,5.81531286 C0,6.24453945 0.349765625,6.59261562 0.78125,6.59261562 C1.21273438,6.59261562 1.5625,6.24453945 1.5625,5.81531286 L1.5625,1.59549164 L5,1.59549164 L5,16.3322192 L1.5625,16.3322192 L1.5625,12.1891955 C1.5625,11.7599689 1.21273438,11.4118927 0.78125,11.4118927 C0.349765625,11.4118927 0,11.7599689 0,12.1891955 L0,17.109522 C0,17.5387485 0.349765625,17.8868247 0.78125,17.8868247 L5,17.8868247 C5.8615625,17.8868247 6.5625,17.1894287 6.5625,16.3322192 L6.5625,16.3236689 C6.92101563,16.4237855 7.26023438,16.5913719 7.55632813,16.819588 L7.92109375,17.1006607 C7.99039063,17.7175282 8.29054688,18.3092888 8.80890625,18.7341625 C9.2709375,19.1127866 9.8303125,19.2971628 10.3867188,19.2971628 C10.4426563,19.2971628 10.4985156,19.2945977 10.5542969,19.2908667 C10.6335938,19.9195492 10.9454688,20.4851924 11.4390625,20.8897007 C11.9010938,21.2683249 12.4604688,21.4527789 13.0169531,21.4527011 C13.0728906,21.4527011 13.1286719,21.4502138 13.1844531,21.4464827 C13.26375,22.0751652 13.5757031,22.6408084 14.0692969,23.0453945 C14.5185156,23.4134473 15.0703125,23.609794 15.6448438,23.609794 C15.7016406,23.609794 15.75875,23.6071512 15.8159375,23.6032647 C15.8926563,24.2071512 16.1910156,24.7843762 16.699375,25.2010882 C17.1485938,25.5691411 17.7003906,25.7654878 18.2749219,25.7654878 C18.3557031,25.7654878 18.4370313,25.7615235 18.5185156,25.7537505 C19.1792188,25.6902449 19.7754688,25.3745045 20.1975,24.8647493 L20.8328125,24.097396 C21.0197656,23.8716673 21.1592188,23.6223863 21.253125,23.361679 C21.6230469,23.5581811 22.0375,23.6625729 22.4675,23.6625729 C22.4801563,23.6625729 22.4928125,23.6624174 22.5054688,23.662262 C23.1964844,23.6524679 23.8422656,23.375515 24.3239063,22.8823941 C24.5779688,22.6223086 24.7651563,22.3218811 24.8866406,22.0024096 L25.15625,22.263117 C25.6582031,22.7484648 26.3088281,22.9900505 26.9590625,22.9900505 C27.6339844,22.9900505 28.3083594,22.7294986 28.8147656,22.2111154 C29.1023438,21.9167509 29.3042188,21.5707734 29.421875,21.2038865 C29.7833594,21.3821998 30.1778125,21.471745 30.5723438,21.471745 C31.2472656,21.471745 31.9216406,21.2112709 32.4280469,20.6928099 C32.9096875,20.1996891 33.1695313,19.5495531 33.1596094,18.861951 C33.1497656,18.1744267 32.8714063,17.5319083 32.3764844,17.0534007 L31.8336719,16.5271667 L33.4375,15.6658375 L33.4375,16.3322192 C33.4375,17.1894287 34.1384375,17.8868247 35,17.8868247 L39.21875,17.8868247 C39.6502344,17.8868247 40,17.5387485 40,17.109522 L40,11.9560047 C40,11.5267781 39.6502344,11.1787019 39.21875,11.1787019 C38.7872656,11.1787019 38.4375,11.5267781 38.4375,11.9560047 L38.4375,16.3322192 L35,16.3322192 L35,14.3675087 C35,14.36541 35,14.3633113 35,14.3612126 L35,1.59549164 L38.4375,1.59549164 L38.4375,5.93455111 C38.4375,6.36377769 38.7872656,6.71185387 39.21875,6.71185387 Z M11.73625,16.6418966 L11.1009375,17.4092499 C10.7775,17.8 10.195,17.8561213 9.80234375,17.5341625 C9.4096875,17.2123591 9.35335938,16.6327244 9.67679688,16.2421298 L10.3121875,15.4747765 C10.4688281,15.2855033 10.6902344,15.168286 10.9354688,15.1447338 C10.9657031,15.14178 10.9958594,15.1403031 11.0258594,15.1403031 C11.2390625,15.1403031 11.4440625,15.2132141 11.6107031,15.349864 C12.0033594,15.6716673 12.0596094,16.251302 11.73625,16.6418966 Z M14.3663281,18.7976681 L13.7310156,19.5650214 C13.4076563,19.955616 12.825,20.0117373 12.4324219,19.6898562 C12.2421875,19.534007 12.1244531,19.3137971 12.1007031,19.0697241 C12.0770313,18.825651 12.1502344,18.5870968 12.3069531,18.3978236 L12.9423438,17.6303925 C13.0989844,17.4411193 13.3203125,17.3239798 13.565625,17.3004275 C13.5958594,17.2974738 13.6260156,17.2959969 13.6560156,17.2959969 C13.8692188,17.2959969 14.0742188,17.3689079 14.2408594,17.5055577 C14.4310937,17.6614069 14.5488281,17.8816945 14.5725781,18.1257676 C14.59625,18.3697629 14.5230469,18.6082394 14.3663281,18.7976681 Z M16.9965625,20.9530509 L16.3611719,21.7204819 C16.2045313,21.9097551 15.9832031,22.0268947 15.7378906,22.0504469 C15.4923438,22.0743101 15.2526563,22.0013214 15.0625781,21.8453945 C14.8723438,21.6895453 14.7545313,21.4692577 14.7307813,21.2251846 C14.7071094,20.9811893 14.7803125,20.7426351 14.9370313,20.5532841 L15.5723438,19.7859308 C15.7545313,19.5659541 16.0188281,19.4520793 16.2852344,19.4520793 C16.4917969,19.4520793 16.6995312,19.5205597 16.8710156,19.661096 C17.2636719,19.9828993 17.32,20.5624563 16.9965625,20.9530509 Z M19.6265625,23.1088224 L18.9911719,23.8761757 C18.8345312,24.0654489 18.613125,24.1826661 18.3678906,24.2062184 C18.1223437,24.2301593 17.8827344,24.1569374 17.6925781,24.0010105 C17.2999219,23.6792072 17.2435937,23.0995725 17.5670312,22.7089778 L18.2024219,21.9416246 C18.3590625,21.7523513 18.5804687,21.6352118 18.8257812,21.6116595 C18.8560156,21.6087058 18.8861719,21.6072289 18.9161719,21.6072289 C19.1294531,21.6072289 19.334375,21.6801399 19.5010937,21.8167897 C19.6913281,21.9726389 19.8090625,22.1928488 19.8328125,22.4369219 C19.8564844,22.6809949 19.7832812,22.9195492 19.6265625,23.1088224 Z M31.3072656,19.6090944 C30.9134375,20.0123591 30.2634375,20.0215313 29.8582031,19.6297707 L27.2679688,17.1251457 C27.2650781,17.1223475 27.2619531,17.1200933 27.2590625,17.117295 L24.7073438,14.6499806 C24.3979688,14.350719 23.9032813,14.3578702 23.6025781,14.6656044 C23.301875,14.973494 23.3089063,15.4656044 23.6183594,15.7647882 L27.6732031,19.685581 C28.0784375,20.0774194 28.0877344,20.724213 27.6939063,21.1273999 C27.3001563,21.5306646 26.6500781,21.5398368 26.2448438,21.1480762 L22.1899219,17.2272833 C22.1817969,17.2193548 22.1729688,17.2125923 22.1645313,17.2051302 L20.2163281,15.3214147 C19.9069531,15.0222309 19.4123438,15.0293043 19.1115625,15.3370385 C18.8108594,15.6449281 18.8178906,16.1370385 19.1273438,16.4362223 L23.1821875,20.3570152 C23.5874219,20.7488535 23.5967188,21.3956471 23.2028906,21.798834 C23.0121094,21.9941702 22.7563281,22.1038476 22.4826563,22.1077342 C22.2104688,22.1126312 21.9502344,22.0091722 21.7538281,21.8193548 L20.6182031,20.721337 C20.5927344,20.6966965 20.5655469,20.674932 20.5377344,20.6544112 C20.5232031,20.6419743 20.5091406,20.6290711 20.4942188,20.6168675 C19.9854688,20.2 19.3585156,20.0191994 18.7477344,20.0601632 C18.67125,19.4558881 18.3728125,18.8781967 17.8641406,18.4612515 C17.3557812,18.0446172 16.7292188,17.8637388 16.1188281,17.9044695 C16.0394531,17.2758647 15.7276562,16.7101438 15.2340625,16.3056354 C14.7404687,15.9011271 14.1224219,15.7047804 13.4874219,15.7477653 C13.4107031,15.1438787 13.1123437,14.5666537 12.6039844,14.1499417 C12.0916406,13.7301205 11.4459375,13.5341625 10.7849219,13.5973572 C10.1242187,13.6608628 9.52796875,13.9766032 9.1059375,14.4863583 L8.47054687,15.2537116 C8.4171875,15.31815 8.3678125,15.3845317 8.32210937,15.4525457 C7.79476562,15.0894675 7.19171875,14.8433735 6.56226562,14.731131 L6.56226562,3.10066071 L9.52148437,3.10066071 C9.57171875,3.10066071 9.62179687,3.09584143 9.67117187,3.08620288 L16.0560938,1.84656044 C17.139375,1.63630004 18.2339063,1.61399145 19.3036719,1.77341625 C18.4953906,2.13509522 17.7503125,2.64135251 17.1021875,3.27944034 L11.1871094,9.1024485 C10.1144531,10.1583366 10.095,11.8955305 11.14375,12.9748154 C11.6794531,13.5263117 12.4029687,13.8150019 13.1353906,13.8149242 C13.6007031,13.8148465 14.0696094,13.6983288 14.4960938,13.4586086 L20.6946094,9.97427128 L22.8347656,9.97427128 L31.2864844,18.1675087 C31.4828125,18.3572483 31.5930469,18.6117373 31.5969531,18.8841042 C31.6010156,19.1563156 31.4980469,19.413836 31.3072656,19.6090944 Z M33.4375,13.8992616 L30.6607031,15.390206 L25.0738281,9.97419355 L25.6224219,9.97419355 C26.0539062,9.97419355 26.4036719,9.62611737 26.4036719,9.19689079 C26.4036719,8.76766421 26.0539062,8.41958803 25.6224219,8.41958803 L20.4892969,8.41958803 C20.3546094,8.41958803 20.2222656,8.454178 20.105,8.52017101 L13.7275781,12.1050136 C13.2494531,12.3738826 12.6489844,12.2871356 12.2672656,11.8942868 C11.8103906,11.4240964 11.8189062,10.6673921 12.2861719,10.2074621 L18.20125,4.38445394 C19.3210156,3.28208317 20.8053125,2.67508745 22.3805469,2.67508745 L33.4375,2.67508745 L33.4375,13.8992616 Z" id="Shape" fill-rule="nonzero"></path>
                            <path d="M39.7710938,8.41461329 C39.6257813,8.26925768 39.4242187,8.18686358 39.21875,8.18686358 C39.0132812,8.18686358 38.8117187,8.26925768 38.6664062,8.41461329 C38.5210937,8.55919161 38.4375,8.75903614 38.4375,8.96416634 C38.4375,9.16859697 38.5210937,9.36914108 38.6664062,9.51371939 C38.8117187,9.65821998 39.0132812,9.7414691 39.21875,9.7414691 C39.4242187,9.7414691 39.6257813,9.65829771 39.7710938,9.51371939 C39.9164063,9.36836378 40,9.16859697 40,8.96416634 C40,8.75895841 39.9164063,8.55919161 39.7710938,8.41461329 Z" id="Path"></path>
                            <path d="M1.33359375,8.41461329 C1.18828125,8.26925768 0.98671875,8.18686358 0.78125,8.18686358 C0.57578125,8.18686358 0.37421875,8.26925768 0.22890625,8.41461329 C0.08359375,8.55919161 0,8.75903614 0,8.96416634 C0,9.16859697 0.08359375,9.36836378 0.22890625,9.51371939 C0.37421875,9.65829771 0.57578125,9.7414691 0.78125,9.7414691 C0.98671875,9.7414691 1.18828125,9.65829771 1.33359375,9.51371939 C1.47890625,9.36836378 1.5625,9.16859697 1.5625,8.96416634 C1.5625,8.75895841 1.47890625,8.55919161 1.33359375,8.41461329 Z" id="Path"></path>
                        </g>
                        <g id="User1" filter="url(#filter-1)">
                            <circle id="Oval-Copy-3" fill="#383876" cx="25" cy="25" r="25"></circle>
                            <g id="man-user-copy" transform="translate(15.000000, 13.000000)" fill="#FFFFFF">
                                <path d="M10.000071,12 C12.7613391,12 15,9.31373523 15,6.00003505 C15,2.68626477 14.2650148,0 10.000071,0 C5.73512716,0 5,2.68626477 5,6.00003505 C5,9.31373523 7.23866088,12 10.000071,12 Z" id="Path"></path>
                                <path d="M1.00069282,21.0507804 C0.99949282,20.8531576 0.99829282,20.9951004 1.00069282,21.0507804 Z" id="Path"></path>
                                <path d="M18.9989918,21.0897567 C19.0027918,21.0356538 19.0002918,20.7143967 18.9989918,21.0897567 Z" id="Path"></path>
                                <path d="M19.9893642,20.4052247 C19.8962115,14.6691048 19.1285766,13.0346221 13.2543918,12 C13.2543918,12 12.4275104,13.0282828 10.5002141,13.0282828 C8.57291792,13.0282828 7.74589369,12 7.74589369,12 C1.93580939,13.0233368 1.12149104,14.6335772 1.01441903,20.2188784 C1.00563913,20.6749565 1.00157039,20.6989202 1,20.645977 C1.00035691,20.7451759 1.00078519,20.928666 1.00078519,21.2486242 C1.00078519,21.2486242 2.39928844,24 10.5002141,24 C18.6009971,24 19.9996431,21.2486242 19.9996431,21.2486242 C19.9996431,21.0430512 19.9997859,20.9001045 20,20.8028561 C19.9984296,20.8355974 19.9952888,20.7721351 19.9893642,20.4052247 Z" id="Path"></path>
                            </g>
                        </g>
                        <g id="User1-Copy" filter="url(#filter-2)" transform="translate(93.000000, 79.000000)">
                            <circle id="Oval-Copy-3" fill="#383876" cx="18.5" cy="18.5" r="18.5"></circle>
                            <g id="man-user-copy" transform="translate(11.000000, 10.000000)" fill="#FFFFFF">
                                <path d="M7.50005322,9 C9.57100434,9 11.25,6.98530142 11.25,4.50002629 C11.25,2.01469858 10.6987611,0 7.50005322,0 C4.30134537,0 3.75,2.01469858 3.75,4.50002629 C3.75,6.98530142 5.42899566,9 7.50005322,9 Z" id="Path"></path>
                                <path d="M0.763877858,15.813266 C0.762661642,15.6160508 0.761445426,15.7577009 0.763877858,15.813266 Z" id="Path"></path>
                                <path d="M14.2621539,15.8173175 C14.2660052,15.7767404 14.2634714,15.5357975 14.2621539,15.8173175 Z" id="Path"></path>
                                <path d="M14.9920231,15.3039185 C14.9221586,11.0018286 14.3464324,9.77596656 9.94079387,9 C9.94079387,9 9.32063278,9.77121212 7.87516061,9.77121212 C6.42968844,9.77121212 5.80942027,9 5.80942027,9 C1.45185704,9.76750261 0.841118283,10.9751829 0.760814273,15.1641588 C0.754229344,15.5062173 0.751177792,15.5241902 0.75,15.4844828 C0.75026768,15.5588819 0.750588896,15.6964995 0.750588896,15.9364681 C0.750588896,15.9364681 1.79946633,18 7.87516061,18 C13.9507478,18 14.9997323,15.9364681 14.9997323,15.9364681 C14.9997323,15.7822884 14.9998394,15.6750784 15,15.6021421 C14.9988222,15.626698 14.9964666,15.5791014 14.9920231,15.3039185 Z" id="Path"></path>
                            </g>
                        </g>
                        <g id="User2" filter="url(#filter-3)" transform="translate(93.000000, 0.000000)">
                            <circle id="Oval-Copy-5" fill="#383876" cx="15.5" cy="15.5" r="15.5"></circle>
                            <g id="man-user-copy-3" transform="translate(10.000000, 8.000000)" fill="#FFFFFF">
                                <path d="M6.00004257,7.5 C7.65680347,7.5 9,5.82108452 9,3.75002191 C9,1.67891548 8.55900886,0 6.00004257,0 C3.44107629,0 3,1.67891548 3,3.75002191 C3,5.82108452 4.34319653,7.5 6.00004257,7.5 Z" id="Path"></path>
                                <path d="M0.62069282,13.1940687 C0.61949282,12.9979138 0.61829282,13.1388023 0.62069282,13.1940687 Z" id="Path"></path>
                                <path d="M11.4189918,13.1810979 C11.4227918,13.1472836 11.4202918,12.9464979 11.4189918,13.1810979 Z" id="Path"></path>
                                <path d="M11.9936185,12.7532654 C11.9377269,9.16819053 11.4771459,8.1466388 7.9526351,7.5 C7.9526351,7.5 7.45650622,8.14267677 6.30012849,8.14267677 C5.14375075,8.14267677 4.64753622,7.5 4.64753622,7.5 C1.16148563,8.13958551 0.672894626,9.14598572 0.608651419,12.636799 C0.603383476,12.9218478 0.600942234,12.9368251 0.6,12.9037356 C0.600214144,12.9657349 0.600471117,13.0804162 0.600471117,13.2803901 C0.600471117,13.2803901 1.43957306,15 6.30012849,15 C11.1605983,15 11.9997859,13.2803901 11.9997859,13.2803901 C11.9997859,13.151907 11.9998715,13.0625653 12,13.0017851 C11.9990578,13.0222483 11.9971733,12.9825845 11.9936185,12.7532654 Z" id="Path"></path>
                            </g>
                        </g>
                        <g id="User2-Copy" filter="url(#filter-4)" transform="translate(22.000000, 91.000000)">
                            <circle id="Oval-Copy-5" fill="#383876" cx="15.5" cy="15.5" r="15.5"></circle>
                            <g id="man-user-copy-3" transform="translate(10.000000, 8.000000)" fill="#FFFFFF">
                                <path d="M6.00004257,7.5 C7.65680347,7.5 9,5.82108452 9,3.75002191 C9,1.67891548 8.55900886,0 6.00004257,0 C3.44107629,0 3,1.67891548 3,3.75002191 C3,5.82108452 4.34319653,7.5 6.00004257,7.5 Z" id="Path"></path>
                                <path d="M0.62069282,13.1940687 C0.61949282,12.9979138 0.61829282,13.1388023 0.62069282,13.1940687 Z" id="Path"></path>
                                <path d="M11.4189918,13.1810979 C11.4227918,13.1472836 11.4202918,12.9464979 11.4189918,13.1810979 Z" id="Path"></path>
                                <path d="M11.9936185,12.7532654 C11.9377269,9.16819053 11.4771459,8.1466388 7.9526351,7.5 C7.9526351,7.5 7.45650622,8.14267677 6.30012849,8.14267677 C5.14375075,8.14267677 4.64753622,7.5 4.64753622,7.5 C1.16148563,8.13958551 0.672894626,9.14598572 0.608651419,12.636799 C0.603383476,12.9218478 0.600942234,12.9368251 0.6,12.9037356 C0.600214144,12.9657349 0.600471117,13.0804162 0.600471117,13.2803901 C0.600471117,13.2803901 1.43957306,15 6.30012849,15 C11.1605983,15 11.9997859,13.2803901 11.9997859,13.2803901 C11.9997859,13.151907 11.9998715,13.0625653 12,13.0017851 C11.9990578,13.0222483 11.9971733,12.9825845 11.9936185,12.7532654 Z" id="Path"></path>
                            </g>
                        </g>
                    </g>
                </g>
            </g>
        </g>
    </g>
</svg>
