<?xml version="1.0" encoding="UTF-8"?>
<svg width="198px" height="187px" viewBox="0 0 198 187" version="1.1" xmlns="http://www.w3.org/2000/svg" xmlns:xlink="http://www.w3.org/1999/xlink">
    <!-- Generator: Sketch 52.5 (67469) - http://www.bohemiancoding.com/sketch -->
    <title>Trade@2x</title>
    <desc>Created with Sketch.</desc>
    <defs>
        <filter x="-116.0%" y="-116.0%" width="332.0%" height="332.0%" filterUnits="objectBoundingBox" id="filter-1">
            <feOffset dx="0" dy="0" in="SourceAlpha" result="shadowOffsetOuter1"></feOffset>
            <feGaussianBlur stdDeviation="15" in="shadowOffsetOuter1" result="shadowBlurOuter1"></feGaussianBlur>
            <feColorMatrix values="0 0 0 0 0   0 0 0 0 0   0 0 0 0 0  0 0 0 0.5 0" type="matrix" in="shadowBlurOuter1" result="shadowMatrixOuter1"></feColorMatrix>
            <feMerge>
                <feMergeNode in="shadowMatrixOuter1"></feMergeNode>
                <feMergeNode in="SourceGraphic"></feMergeNode>
            </feMerge>
        </filter>
        <filter x="-116.0%" y="-116.0%" width="332.0%" height="332.0%" filterUnits="objectBoundingBox" id="filter-2">
            <feOffset dx="0" dy="0" in="SourceAlpha" result="shadowOffsetOuter1"></feOffset>
            <feGaussianBlur stdDeviation="15" in="shadowOffsetOuter1" result="shadowBlurOuter1"></feGaussianBlur>
            <feColorMatrix values="0 0 0 0 0   0 0 0 0 0   0 0 0 0 0  0 0 0 0.5 0" type="matrix" in="shadowBlurOuter1" result="shadowMatrixOuter1"></feColorMatrix>
            <feMerge>
                <feMergeNode in="shadowMatrixOuter1"></feMergeNode>
                <feMergeNode in="SourceGraphic"></feMergeNode>
            </feMerge>
        </filter>
    </defs>
    <g id="Web-Skillterr" stroke="none" stroke-width="1" fill="none" fill-rule="evenodd">
        <g id="Skillterr-LP-Dark" transform="translate(-185.000000, -1254.000000)">
            <g id="Benefit" transform="translate(120.000000, 1283.000000)">
                <g id="Barter-icon" transform="translate(94.000000, 0.000000)">
                    <g id="Trade">
                        <circle id="Oval-Copy" fill="#F9775A" cx="67" cy="62" r="54"></circle>
                        <g id="001-social-care" transform="translate(47.000000, 42.000000)" fill="#FFFFFF">
                            <path d="M8.56405458,38.6908382 L7.39017544,37.0373489 C7.14097466,36.6861598 6.65419103,36.6035867 6.30300195,36.8528655 C5.95189084,37.1021442 5.86923977,37.5888499 6.11859649,37.940039 L7.29247563,39.5936062 C7.44452242,39.8077973 7.68483431,39.9220273 7.92896686,39.9220273 C8.08506823,39.9220273 8.24265107,39.8752437 8.37964912,39.7780117 C8.73076023,39.5287329 8.81341131,39.0420273 8.56405458,38.6908382 Z" id="Path"></path>
                            <path d="M17.559922,38.9821442 L16.2824172,32.8934113 C15.6612086,29.9326316 13.9364522,27.3724756 11.4260429,25.6844444 L8.69847953,23.8503704 C7.60475634,23.1150877 6.13465887,23.2732164 5.22050682,24.2053801 L5.22050682,14.8099805 C5.22050682,13.5767641 4.3797271,12.5289669 3.17582846,12.2617544 C2.39883041,12.0891228 1.5974269,12.2761014 0.97668616,12.7741131 C0.356023392,13.2721248 7.79727096e-05,14.014191 7.79727096e-05,14.8099805 L7.79727096e-05,26.8998051 C7.79727096e-05,28.4836647 0.484756335,30.0035867 1.40163743,31.2952047 L2.79212476,33.2539571 C2.94417154,33.4681481 3.18448343,33.5823782 3.42861598,33.5823782 C3.58471735,33.5823782 3.74230019,33.5355945 3.87929825,33.4383626 C4.23040936,33.1890838 4.31306043,32.7023782 4.0637037,32.3511891 L2.67321637,30.3924366 C1.94463938,29.3660819 1.55953216,28.1583626 1.55953216,26.8997271 L1.55953216,14.8099805 C1.55953216,14.4896686 1.702846,14.1909552 1.95267057,13.9904094 C2.20241715,13.7899415 2.52499025,13.7146979 2.83797271,13.7841715 C3.3225731,13.8916959 3.66105263,14.3135283 3.66105263,14.8099805 L3.66105263,24.4018713 C3.66105263,25.7596881 4.15992203,27.0533333 5.06619883,28.0598051 C5.10502924,28.1063548 5.14495127,28.1524366 5.1871345,28.197115 C5.70495127,28.745809 6.31376218,29.3923587 6.88717349,30.0017934 L7.68990253,30.8561404 C7.69247563,30.8588694 7.69528265,30.8612086 7.69793372,30.8638596 C8.38463938,31.59423 8.89107212,32.1335673 8.90167641,32.1447953 C9.19633528,32.4586355 9.68990253,32.47423 10.0038207,32.1794152 C10.3177388,31.8846004 10.3332554,31.3911891 10.0383626,31.077271 C10.0241715,31.0621442 9.111423,30.0902144 8.06908382,28.9823002 L6.28124756,27.0795322 C6.27672515,27.0746979 6.27259259,27.0696296 6.26807018,27.0647953 C5.84888889,26.5634308 5.85411306,25.8364912 6.29348928,25.3404288 C6.68218324,24.9017544 7.34214425,24.8175439 7.82846004,25.1444834 L10.5558674,26.9785575 C12.7272515,28.4385965 14.2189474,30.6528655 14.7561793,33.2136452 L16.0337622,39.3024561 C16.1108772,39.6699415 16.4350097,39.9221832 16.7961014,39.9221832 C16.8491228,39.9221832 16.9030019,39.9167251 16.9569591,39.9054191 C17.3784016,39.8169981 17.6483431,39.4035867 17.559922,38.9821442 Z" id="Path"></path>
                            <path d="M5.77692008,34.7647563 L5.77192982,34.7577388 C5.52163743,34.4071735 5.03477583,34.32577 4.6842885,34.5759064 C4.33380117,34.8260429 4.25239766,35.3129825 4.50245614,35.6634698 L4.50744639,35.6704873 C4.65964912,35.8837427 4.8994152,35.9974269 5.142846,35.9974269 C5.29957115,35.9974269 5.45777778,35.9503314 5.59508772,35.8523197 C5.94549708,35.6021832 6.02697856,35.1152437 5.77692008,34.7647563 Z" id="Path"></path>
                            <path d="M38.9454191,12.774191 C38.3247563,12.2761793 37.522963,12.0895127 36.7463548,12.2618324 C35.5424561,12.5289669 34.7015984,13.5768421 34.7015984,14.8100585 L34.7015984,24.2054581 C33.7875244,23.2732943 32.317271,23.1151657 31.2236257,23.8504483 L28.4960624,25.6844444 C25.985575,27.3723977 24.2608967,29.9326316 23.6396881,32.8934113 L22.3621832,38.9822222 C22.2737622,39.4036647 22.5437037,39.8169981 22.9651462,39.9054191 C23.0191033,39.9167251 23.0730604,39.9221832 23.1260039,39.9221832 C23.4871735,39.9221832 23.8112281,39.6698635 23.8883431,39.3023782 L25.165848,33.2135673 C25.7031579,30.6528655 27.1947758,28.4385185 29.3661598,26.9785575 L32.0937232,25.1445614 C32.579883,24.8175439 33.2398441,24.9017544 33.628694,25.3404288 C34.0675244,25.8358674 34.0733723,26.5616374 33.6557505,27.0630019 C33.6507602,27.06846 33.6460039,27.0740741 33.6410136,27.0795322 C33.6410136,27.0795322 29.8979337,31.0623002 29.8838207,31.077271 C29.5890058,31.3911891 29.6045224,31.8846004 29.9183626,32.1794152 C30.2322807,32.47423 30.725692,32.4587135 31.0205068,32.1447953 C31.0311111,32.1335673 34.217232,28.7458869 34.7350487,28.197193 C34.777232,28.1525146 34.817154,28.1064327 34.8559844,28.059883 C35.7621832,27.0534113 36.2611306,25.7597661 36.2611306,24.4019493 L36.2611306,14.8099805 C36.2611306,14.3135283 36.5996101,13.8916959 37.0842885,13.7841715 C37.397193,13.7147758 37.7196881,13.7900195 37.9695906,13.9904094 C38.2194152,14.1908772 38.362729,14.4895906 38.362729,14.8099805 L38.362729,26.8998051 C38.362729,28.1584405 37.9776218,29.3661598 37.2490448,30.3925146 L31.3581287,38.6909162 C31.1088499,39.0420273 31.191423,39.5288109 31.5425341,39.7780897 C31.6796101,39.8753216 31.837115,39.9221053 31.9932164,39.9221053 C32.237271,39.9221053 32.4776608,39.8077973 32.6297076,39.5936842 L38.5206238,31.2952827 C39.4375049,30.0036647 39.9221832,28.4837427 39.9221832,26.899883 L39.9221832,14.8099805 C39.9219493,14.014191 39.5660819,13.2722027 38.9454191,12.774191 Z" id="Path"></path>
                            <path d="M29.8368811,14.9442495 L28.4496686,14.6128655 L28.4496686,14.3641326 C29.3512671,13.7325536 29.9424561,12.6867057 29.9424561,11.5047953 L29.9424561,9.70136452 C29.9424561,7.77707602 28.3769981,6.21161793 26.4527096,6.21161793 C25.5891618,6.21161793 24.7985185,6.52756335 24.188538,7.04904483 C23.5093957,5.38588694 21.8752437,4.21052632 19.9708382,4.21052632 C18.0640936,4.21052632 16.4282261,5.38892788 15.7506433,7.05528265 C15.1397271,6.53005848 14.3461988,6.21146199 13.4791423,6.21146199 C11.5548538,6.21146199 9.98939571,7.77692008 9.98939571,9.70120858 L9.98939571,9.82105263 L9.98939571,11.5046394 C9.98939571,12.6865497 10.5805848,13.7323977 11.4821832,14.3639766 L11.4821832,14.6127096 L10.0949708,14.9440936 C8.43867446,15.3398051 7.28187135,16.8054581 7.28187135,18.5083821 L7.28187135,19.9646004 C7.28187135,20.3952437 7.63103314,20.7443275 8.06159844,20.7443275 L11.6446004,20.7443275 C11.6390643,20.8389084 11.6352437,20.9339571 11.6352437,21.0297856 L11.6352437,23.8335283 C11.6352437,24.2641715 11.9844055,24.6132554 12.4149708,24.6132554 L17.1019103,24.6132554 C17.5324756,24.6132554 17.8816374,24.2641715 17.8816374,23.8335283 C17.8816374,23.402885 17.5324756,23.0538012 17.1019103,23.0538012 L16.2962963,23.0538012 L16.2962963,21.4424951 C16.2962963,21.0118519 15.9471345,20.662768 15.5165692,20.662768 C15.0860039,20.662768 14.7368421,21.0118519 14.7368421,21.4424951 L14.7368421,23.0539571 L13.1947758,23.0539571 L13.1947758,21.0299415 C13.1947758,19.5260819 14.2162183,18.2310331 15.6785185,17.8806238 L17.8182456,17.3678752 L19.2502144,20.625731 C19.3746589,20.9088499 19.6547368,21.0916959 19.9638986,21.0916959 L19.9639766,21.0916959 C20.2732164,21.0916959 20.5532943,20.9089279 20.6777388,20.625809 L22.1082261,17.3727875 L24.2411696,17.8823392 C25.7048733,18.2320468 26.7271735,19.5272515 26.7271735,21.0322027 L26.7271735,23.0539571 L25.1851072,23.0539571 L25.1851072,21.4424951 C25.1851072,21.0118519 24.8359454,20.662768 24.4053801,20.662768 C23.9748148,20.662768 23.625653,21.0118519 23.625653,21.4424951 L23.625653,23.0539571 L22.7419883,23.0539571 C22.311423,23.0539571 21.9622612,23.4030409 21.9622612,23.8336842 C21.9622612,24.2643275 22.311423,24.6134113 22.7419883,24.6134113 L27.5069786,24.6134113 C27.9375439,24.6134113 28.2867057,24.2643275 28.2867057,23.8336842 L28.2867057,21.0322027 C28.2867057,20.9355945 28.282807,20.8398441 28.277193,20.7444834 L31.8703314,20.7444834 C32.3008967,20.7444834 32.6500585,20.3953996 32.6500585,19.9647563 L32.6500585,18.508538 C32.6500585,16.805614 31.4932554,15.339883 29.8368811,14.9442495 Z M26.4527096,7.77091618 C27.474308,7.77091618 28.3129825,8.56865497 28.3787914,9.57387914 L27.2947368,9.57387914 C26.3833918,9.57387914 25.4865497,9.35446394 24.6803899,8.93668616 C24.9769201,8.25146199 25.6598051,7.77091618 26.4527096,7.77091618 Z M24.5224172,11.3907992 C24.5233528,11.3528265 24.5253021,11.3150097 24.5253021,11.2768031 L24.5253021,10.5823782 C25.4002339,10.9444834 26.3411306,11.1333333 27.2947368,11.1333333 L28.3830019,11.1333333 L28.3830019,11.5047173 C28.3830019,12.5690448 27.517115,13.4350097 26.4527096,13.4350097 C25.3883041,13.4350097 24.5224172,12.5690448 24.5224172,11.5046394 L24.5224172,11.3907992 Z M16.9759064,8.76491228 C16.9759064,7.11352827 18.3193762,5.76998051 19.9708382,5.76998051 C21.4603509,5.76998051 22.6992593,6.86300195 22.9280312,8.28896686 L21.6153606,7.51773879 C21.2870175,7.32483431 20.8673684,7.39727096 20.622768,7.68927875 C19.9812865,8.45481481 19.0405458,8.89387914 18.0417154,8.89387914 L16.9759064,8.89387914 L16.9759064,8.76491228 Z M13.4792203,7.77091618 C14.2721248,7.77091618 14.9549318,8.25153996 15.25154,8.93660819 C14.4453021,9.35438596 13.548538,9.57380117 12.637193,9.57380117 L11.5531384,9.57380117 C11.6189474,8.56865497 12.4576998,7.77091618 13.4792203,7.77091618 Z M11.5489279,11.1332554 L12.637193,11.1332554 C13.5918129,11.1332554 14.5337232,10.9440156 15.4095127,10.5811306 L15.4095127,11.5045614 C15.4095127,12.5688889 14.5436257,13.4348538 13.4792203,13.4348538 C12.4148148,13.4348538 11.5489279,12.5690448 11.5489279,11.5046394 L11.5489279,11.1332554 Z M15.3151657,16.3640546 C13.7811306,16.7316179 12.5755166,17.8011696 12.0017154,19.1849513 L8.84132554,19.1849513 L8.84132554,18.50846 C8.84132554,17.5302144 9.50580897,16.6881871 10.4573099,16.4608967 L12.4431189,15.9865107 C12.7940741,15.9026901 13.0417154,15.5890058 13.0417154,15.2281481 L13.0417154,14.9660039 C13.1851852,14.9840156 13.3309942,14.994386 13.4792203,14.994386 C13.6263548,14.994386 13.7711501,14.9841715 13.9135283,14.9663938 L13.9135283,15.1888499 C13.9129825,15.2004678 13.9127485,15.2120858 13.9126706,15.2237037 C13.9125146,15.4795322 14.0382846,15.7301365 14.2692398,15.8795322 C14.3562573,15.9359064 14.4502924,15.9725536 14.5462768,15.9908772 L15.7093957,16.2695517 L15.3151657,16.3640546 Z M17.4901365,15.1536062 C17.2898246,15.0652632 17.0810136,14.9946199 16.865809,14.9430799 L15.4729045,14.6092788 L15.4729045,14.3663158 C15.7242885,14.1906433 15.9515789,13.9830019 16.148694,13.7489279 C16.4969201,14.2853801 16.9544639,14.7440936 17.4901365,15.0934893 L17.4901365,15.1536062 Z M20.8766472,16.2992593 L19.9642105,18.3745029 L19.0496686,16.2939571 L19.0496686,15.7375439 C19.3472904,15.7989084 19.6553606,15.8312671 19.9708382,15.8312671 C20.2809357,15.8312671 20.5837817,15.7998441 20.8766472,15.7405068 L20.8766472,16.2992593 Z M19.9708382,14.2717349 C18.3193762,14.2718129 16.9759064,12.9282651 16.9759064,11.2768031 L16.9759064,10.4532554 L18.0417154,10.4532554 C19.2782066,10.4532554 20.4538791,9.99345029 21.3549318,9.17333333 L22.962885,10.1180507 L22.962885,11.3908772 C22.9026901,12.9895517 21.5840936,14.2717349 19.9708382,14.2717349 Z M22.4361014,15.1561014 L22.4361014,15.1033138 C22.9761404,14.754152 23.4377388,14.294269 23.788694,13.7554776 C23.9844834,13.9869006 24.2098246,14.1922807 24.4587914,14.3663158 L24.4587914,14.6092788 L23.065809,14.9430799 C22.8487329,14.9951657 22.6381287,15.0666667 22.4361014,15.1561014 Z M31.0905263,19.1849513 L27.9193762,19.1849513 C27.3450292,17.8011696 26.1385575,16.7322417 24.6035867,16.3655361 L24.2120858,16.2720468 L25.3814425,15.9918129 C25.4787524,15.9737232 25.574347,15.9366082 25.6625341,15.8795322 C25.8930994,15.7303704 26.0184795,15.4797661 26.0184795,15.2239376 C26.0184795,15.2178558 26.0184016,15.2116959 26.0182456,15.205614 L26.0182456,14.9663938 C26.1607018,14.9841715 26.3054191,14.994386 26.4525536,14.994386 C26.6007797,14.994386 26.7465887,14.9840156 26.8900585,14.9660039 L26.8900585,15.2281481 C26.8900585,15.5890058 27.1376998,15.9026901 27.488655,15.9865107 L29.4744639,16.4608967 C30.4259649,16.6882651 31.0905263,17.5302144 31.0905263,18.50846 L31.0905263,19.1849513 Z" id="Shape" fill-rule="nonzero"></path>
                            <path d="M20.5122027,23.2818713 C20.3664717,23.1368421 20.1660819,23.054191 19.9610136,23.054191 C19.7550877,23.054191 19.5547758,23.1368421 19.4097466,23.2818713 C19.2639376,23.4276803 19.1812865,23.6280702 19.1812865,23.8339181 C19.1812865,24.0389864 19.2639376,24.2393762 19.4097466,24.3851852 C19.5547758,24.5302144 19.7551657,24.6136452 19.9610136,24.6136452 C20.1660819,24.6136452 20.3664717,24.5302144 20.5122027,24.3851852 C20.657232,24.2393762 20.7407407,24.0389864 20.7407407,23.8339181 C20.7407407,23.6280702 20.6573099,23.4276803 20.5122027,23.2818713 Z" id="Path"></path>
                            <path d="M19.9604678,0 C19.5299025,0 19.1807407,0.349083821 19.1807407,0.779727096 L19.1807407,1.94643275 C19.1807407,2.37707602 19.5299025,2.72615984 19.9604678,2.72615984 C20.3910331,2.72615984 20.7401949,2.37707602 20.7401949,1.94643275 L20.7401949,0.779727096 C20.7401949,0.349083821 20.3911111,0 19.9604678,0 Z" id="Path"></path>
                            <path d="M17.0882651,2.54339181 L16.2703314,1.72623782 C15.965692,1.42183236 15.4720468,1.42206628 15.1676413,1.72670565 C14.8632359,2.03134503 14.8635478,2.52506823 15.1681871,2.82939571 L15.9861988,3.64654971 C16.1384016,3.79867446 16.3378558,3.87469786 16.537232,3.87469786 C16.7369201,3.87469786 16.9365302,3.79844055 17.0888109,3.64608187 C17.3930604,3.3414425 17.3929045,2.8477193 17.0882651,2.54339181 Z" id="Path"></path>
                            <path d="M24.7346589,1.74619883 C24.4300195,1.44187135 23.9362183,1.44202729 23.6319688,1.74674464 L22.8203509,2.5591423 C22.5160234,2.86378168 22.5162573,3.35750487 22.8208967,3.66183236 C22.9731774,3.81395712 23.1725536,3.88998051 23.3720078,3.88998051 C23.5716959,3.88998051 23.771384,3.8137232 23.9235867,3.66128655 L24.7352047,2.84888889 C25.0395322,2.54424951 25.0392982,2.05052632 24.7346589,1.74619883 Z" id="Path"></path>
                        </g>
                        <g id="User1" filter="url(#filter-1)" transform="translate(0.000000, 79.000000)">
                            <circle id="Oval-Copy-3" fill="#383876" cx="25" cy="25" r="25"></circle>
                            <g id="man-user-copy" transform="translate(15.000000, 13.000000)" fill="#FFFFFF">
                                <path d="M10.000071,12 C12.7613391,12 15,9.31373523 15,6.00003505 C15,2.68626477 14.2650148,0 10.000071,0 C5.73512716,0 5,2.68626477 5,6.00003505 C5,9.31373523 7.23866088,12 10.000071,12 Z" id="Path"></path>
                                <path d="M1.00069282,21.0507804 C0.99949282,20.8531576 0.99829282,20.9951004 1.00069282,21.0507804 Z" id="Path"></path>
                                <path d="M18.9989918,21.0897567 C19.0027918,21.0356538 19.0002918,20.7143967 18.9989918,21.0897567 Z" id="Path"></path>
                                <path d="M19.9893642,20.4052247 C19.8962115,14.6691048 19.1285766,13.0346221 13.2543918,12 C13.2543918,12 12.4275104,13.0282828 10.5002141,13.0282828 C8.57291792,13.0282828 7.74589369,12 7.74589369,12 C1.93580939,13.0233368 1.12149104,14.6335772 1.01441903,20.2188784 C1.00563913,20.6749565 1.00157039,20.6989202 1,20.645977 C1.00035691,20.7451759 1.00078519,20.928666 1.00078519,21.2486242 C1.00078519,21.2486242 2.39928844,24 10.5002141,24 C18.6009971,24 19.9996431,21.2486242 19.9996431,21.2486242 C19.9996431,21.0430512 19.9997859,20.9001045 20,20.8028561 C19.9984296,20.8355974 19.9952888,20.7721351 19.9893642,20.4052247 Z" id="Path"></path>
                            </g>
                        </g>
                        <g id="User2" filter="url(#filter-2)" transform="translate(90.000000, 0.000000)">
                            <circle id="Oval-Copy-5" fill="#383876" cx="25" cy="25" r="25"></circle>
                            <g id="man-user-copy-3" transform="translate(15.000000, 13.000000)" fill="#FFFFFF">
                                <path d="M10.000071,12 C12.7613391,12 15,9.31373523 15,6.00003505 C15,2.68626477 14.2650148,0 10.000071,0 C5.73512716,0 5,2.68626477 5,6.00003505 C5,9.31373523 7.23866088,12 10.000071,12 Z" id="Path"></path>
                                <path d="M1.00069282,21.0507804 C0.99949282,20.8531576 0.99829282,20.9951004 1.00069282,21.0507804 Z" id="Path"></path>
                                <path d="M18.9989918,21.0897567 C19.0027918,21.0356538 19.0002918,20.7143967 18.9989918,21.0897567 Z" id="Path"></path>
                                <path d="M19.9893642,20.4052247 C19.8962115,14.6691048 19.1285766,13.0346221 13.2543918,12 C13.2543918,12 12.4275104,13.0282828 10.5002141,13.0282828 C8.57291792,13.0282828 7.74589369,12 7.74589369,12 C1.93580939,13.0233368 1.12149104,14.6335772 1.01441903,20.2188784 C1.00563913,20.6749565 1.00157039,20.6989202 1,20.645977 C1.00035691,20.7451759 1.00078519,20.928666 1.00078519,21.2486242 C1.00078519,21.2486242 2.39928844,24 10.5002141,24 C18.6009971,24 19.9996431,21.2486242 19.9996431,21.2486242 C19.9996431,21.0430512 19.9997859,20.9001045 20,20.8028561 C19.9984296,20.8355974 19.9952888,20.7721351 19.9893642,20.4052247 Z" id="Path"></path>
                            </g>
                        </g>
                    </g>
                </g>
            </g>
        </g>
    </g>
</svg>
