<?xml version="1.0" encoding="UTF-8"?>
<svg width="29px" height="26px" viewBox="0 0 29 26" version="1.1" xmlns="http://www.w3.org/2000/svg" xmlns:xlink="http://www.w3.org/1999/xlink">
    <!-- Generator: Sketch 52.5 (67469) - http://www.bohemiancoding.com/sketch -->
    <title>users-group@2x</title>
    <desc>Created with Sketch.</desc>
    <g id="Symbols" stroke="none" stroke-width="1" fill="none" fill-rule="evenodd">
        <g id="Button" transform="translate(-22.000000, -13.000000)" fill="#FFFFFF" fill-rule="nonzero">
            <g id="users-group" transform="translate(22.000000, 13.000000)">
                <path d="M7.95922928,3.63614457 C7.95922928,1.62799965 9.62358717,0 11.6768506,0 C13.7298436,0 15.3943638,1.62799965 15.3943638,3.63614457 C15.3943638,5.6442895 13.7298436,7.27223623 11.6768506,7.27223623 C9.62358717,7.27228915 7.95922928,5.6442895 7.95922928,3.63614457 Z M13.4633603,9.74953037 C13.5006333,8.95775508 13.7792886,8.2249277 14.227593,7.61909763 C13.912963,7.55464649 13.5877841,7.52041014 13.2541119,7.52041014 L10.1000222,7.52041014 C9.76732373,7.52041014 9.44257757,7.55438192 9.12957052,7.61803932 C9.60665472,8.26530226 9.89201803,9.05580758 9.8966704,9.91155777 C10.4765936,9.59956772 11.1419905,9.42193024 11.8487719,9.42193024 C12.4220952,9.42193024 12.967883,9.53876776 13.4633603,9.74953037 Z M14.0926202,10.0759135 C15.1724025,10.7382573 15.9296026,11.8585323 16.0680917,13.1595139 C16.5080652,13.3606459 16.9969967,13.4766897 17.5149784,13.4766897 C19.4066532,13.4766897 20.9399333,11.9767457 20.9399333,10.1264478 C20.9399333,8.27593828 19.4066532,6.77631175 17.5149784,6.77631175 C15.6406148,6.77636466 14.1210754,8.24937468 14.0926202,10.0759135 Z M11.8487178,16.935673 C13.740068,16.935673 15.2734563,15.4353057 15.2734563,13.585537 C15.2734563,11.7355037 13.740068,10.2354009 11.8487178,10.2354009 C9.9572053,10.2354009 8.42316783,11.7354508 8.42316783,13.585537 C8.42322192,15.4353057 9.9572053,16.935673 11.8487178,16.935673 Z M13.3015552,17.1636861 L10.3956099,17.1636861 C7.97762237,17.1636861 6.00999494,19.0881715 6.00999494,21.4536551 L6.00999494,24.9303652 L6.01924559,24.9848153 L6.26387363,25.0592145 C8.57155675,25.7642083 10.5764031,26 12.2266957,26 C15.4493267,26 17.3180101,25.1011236 17.4331292,25.0436044 L17.6620149,24.9303123 L17.6863046,24.9303123 L17.6863046,21.4536022 C17.6863587,19.0881715 15.7198673,17.1636861 13.3015552,17.1636861 Z M18.9685732,13.7053378 L16.0844291,13.7053378 C16.0531068,14.8341322 15.5606048,15.8506398 14.7817118,16.5812976 C16.9311061,17.2064948 18.503715,19.1560093 18.503715,21.4589467 L18.503715,22.5302219 C21.3508024,22.4276716 22.9917903,21.6388066 23.0998767,21.5856265 L23.3288165,21.4717523 L23.3531062,21.4717523 L23.3531062,17.9944072 C23.3534308,15.6295586 21.3859657,13.7053378 18.9685732,13.7053378 Z M19.739514,6.70487576 C20.8193504,7.36732547 21.5764964,8.48765338 21.7146609,9.78863496 C22.1546885,9.98976695 22.6435659,10.1055991 23.1615476,10.1055991 C25.0536011,10.1055991 26.586773,8.60586671 26.586773,6.75583343 C26.586773,4.905271 25.053547,3.40569738 23.1615476,3.40569738 C21.2874545,3.40548571 19.7680233,4.87881323 19.739514,6.70487576 Z M24.6148178,10.3343001 L21.7312688,10.3343001 C21.6999465,11.4630945 21.2074986,12.4796021 20.4286055,13.210207 C22.5779458,13.8351925 24.1505547,15.7849716 24.1505547,18.087909 L24.1505547,19.1591842 C26.9973716,19.0568455 28.6386841,18.2680864 28.7467705,18.2145359 L28.9753857,18.1010321 L29,18.1010321 L29,14.6232637 C29.0003246,12.2586268 27.0328595,10.3343001 24.6148178,10.3343001 Z M5.83910154,13.4767426 C6.50915084,13.4767426 7.13218958,13.2852942 7.66055802,12.9593873 C7.82858427,11.8883238 8.4156483,10.9521949 9.25394024,10.314933 C9.25745657,10.2520693 9.26335318,10.1899994 9.26335318,10.1265007 C9.26335318,8.2759912 7.72964029,6.77636466 5.83910154,6.77636466 C3.94693986,6.77636466 2.41387615,8.27593828 2.41387615,10.1265007 C2.41387615,11.9771161 3.94688577,13.4767426 5.83910154,13.4767426 Z M8.91496649,16.5812976 C8.13969791,15.8541322 7.648873,14.8431807 7.612736,13.7209478 C7.5061102,13.7131693 7.40024176,13.7053378 7.29123568,13.7053378 L4.38561497,13.7053378 C1.96730284,13.7053378 0,15.6295586 0,17.9947247 L0,21.4717523 L0.00898015375,21.5258849 L0.253932781,21.6006016 C2.10481821,22.166745 3.75732879,22.4269308 5.19258456,22.5082619 L5.19258456,21.4585763 C5.19285505,19.1560093 6.76508522,17.2061773 8.91496649,16.5812976 Z" id="Shape"></path>
            </g>
        </g>
    </g>
</svg>
